<svg id="logo" xmlns="http://www.w3.org/2000/svg" viewBox="0 0 176 95">
  <path d="M112.5 73.4V15.5l6.5.4v65.7H97.6l2.1-67.3h6.9l-2 59.6 7.9-.5zM132.9 28h-.4l-1.8 53.7H126l3-68.2h5.7l9.4 54.1h.7V13.4h5.5l-1.9 68.2H142L132.9 28zm25.8-5.8l-1.7-4.5v-4.3h9.4l-.8 66.4h-6.9V22.2z" id="uni"/>
  <g id="colores">
    <path id="violeta" fill="#951556" d="M17.4 29.9l-.6 1.1c-4 7.7-4.2 15.4-.6 23.3 3.2 7.3 8.5 13.1 16 17.2l1.3.7c9.1 4.6 17.3 6.3 24.6 5.1 7.6-1.3 13.5-5.7 17.6-13.1.5-.9.9-1.6 1.1-2.2 2.4-5.1 2.7-11.2.8-18.2-1.9-7.2-5.2-12.9-9.9-17.1-2.8-2.6-5.9-4.8-9.4-6.8-2.2-1.2-3.9-2.1-5.2-2.6-4-1.9-8.3-2.7-12.8-2.4-4.5.4-8.7 1.7-12.5 4.1-4.3 2.6-7.8 6.3-10.4 10.9zm21.2-7.8c4-.5 8.1-.4 12.2.4l.6.1c3 .5 5.9 1.5 8.7 2.8 3.8 1.8 7.1 4.5 9.8 8.1 2.4 2.9 4.1 6 5.1 9.1 1.1 3.1 1.2 6.8.4 11-.9 5.1-4 9.9-9.2 14.3-2.3 2-5.1 3.6-8.4 4.7-3.3 1.1-6.5 1.6-9.5 1.5-2-.1-3.7-.3-4.9-.5-2.5-.5-4.9-1.2-7.3-2.3-3.7-1.7-7.1-4.2-10.3-7.4-4.4-4.5-7.2-9.4-8.3-14.5-.5-2.2-.5-4.7 0-7.4v-.1c1-5.6 3.2-10 6.5-13.4 3.5-3.4 8.3-5.5 14.6-6.4z"/>
    <path id="rojo" fill="#E84545" d="M37 65.7c2.4 1.1 5 1.9 7.8 2.4 1.7.3 3.1.5 4 .6 3.1.4 6.2-.1 9.1-1.3 2.9-1.3 5.4-3.1 7.4-5.6 2.3-2.8 3.8-6 4.5-9.7l.2-.9c.9-6-.7-11.2-4.9-15.6-3.8-4.1-8.6-6.7-14.5-7.8l-1-.2c-7.1-1-12.9-.3-17.5 2.2-4.8 2.6-7.7 6.9-8.7 12.7-.1.7-.2 1.3-.2 1.7-.4 4 .8 8 3.6 12.2 2.6 4.5 6.1 7.5 10.2 9.3zM28.8 42c1-3.5 2.7-6.1 5-8 2.3-1.9 5.5-2.9 9.5-3.1 2.6 0 5.1.3 7.6 1l.4.1c1.8.5 3.6 1.3 5.3 2.4 2.3 1.4 4.1 3.3 5.6 5.7 1.3 2 2.2 4 2.6 6s.3 4.3-.5 6.9c-.9 3.1-3.1 5.9-6.7 8.4-1.6 1.1-3.5 1.9-5.6 2.4-2.1.5-4.2.6-6.1.3-1.3-.2-2.3-.4-3.1-.7-1.5-.4-3-1.1-4.4-1.9-2.2-1.3-4.2-3.1-6-5.3-2.5-3.1-3.9-6.4-4.2-9.6-.1-1.3.1-2.9.6-4.6z"/>
    <path id="naranja" fill="#F2910A" d="M39.4 58.2c1.4.8 3 1.5 4.7 2 1.1.3 1.9.5 2.5.6 1.9.4 3.9.4 5.8-.2s3.6-1.6 5-3c1.6-1.6 2.8-3.5 3.4-5.8l.2-.5c1-3.7.3-7.1-2.1-10.1-2.1-2.8-5-4.8-8.6-5.8l-.6-.2c-4.4-1.1-8.1-1-11.1.2-3.2 1.3-5.3 3.8-6.3 7.4-.1.4-.2.8-.3 1.1-.5 2.5 0 5.1 1.5 7.9 1.4 2.9 3.4 5 5.9 6.4zm-3.3-14.6c.6-2 1.6-3.6 3-4.6 1.4-1.1 3.3-1.7 5.6-1.7 1.5 0 3 .2 4.4.7l.2.1c1.1.3 2.1.8 3.1 1.4 1.3.8 2.4 2 3.2 3.4.7 1.2 1.2 2.4 1.5 3.6s.1 2.5-.3 4.1c-.6 1.8-1.9 3.4-4 4.8-.9.6-2 1.1-3.3 1.3s-2.4.3-3.6.1c-.7-.1-1.3-.3-1.8-.4-.9-.3-1.7-.7-2.6-1.2-1.3-.8-2.4-1.9-3.4-3.2-1.4-1.9-2.2-3.8-2.4-5.7 0-.8.1-1.7.4-2.7z"/>
    <path id="verde" fill="#25A55F" d="M51.5 85.5c-.8-.1-1.6-.1-2.5-.2-.2 0-.4-.1-.6-.1-1-.1-1.9-.3-2.9-.5-2.1-.4-4.2-1-6.3-1.7-1.4-.5-2.7-1-4.1-1.5-2-.8-4-1.8-5.9-2.9l-.5-.3-.2-.1c-.9-.5-1.9-1.1-2.8-1.7-1.8-1.2-3.5-2.5-5.2-3.9-.8-.7-1.7-1.5-2.5-2.3-3.2-3.2-5.8-6.8-7.8-11-.7-1.4-1.2-2.9-1.8-4.4-.3-.7-.5-1.5-.7-2.2 0-.1-.1-.1-.1-.2-.2-.7-.6-1.4-.6-2.1 0 .7-.1 1.5-.1 2.2v.1c-.1 1.4-.1 2.8 0 4.2v.2c0 .7.1 1.3.2 2l.3 1.8c0 .1 0 .2.1.3.1.6.2 1.2.4 1.8v.1c.1.5.3 1.1.5 1.6 0 .1.1.3.1.4.2.5.4 1.1.6 1.6 1.2 2.8 2.8 5.4 4.8 7.8.8 1 1.7 2 2.7 2.9 2 1.9 4.3 3.7 6.9 5.4l.1.1c.9.6 1.7 1.1 2.6 1.5 1.3.7 2.5 1.2 3.8 1.7 1.2.4 2.5.8 3.7 1 .9.2 1.7.3 2.6.4.3 0 .6 0 .8.1.6.1 1.2.1 1.8.1h3.7c.7 0 1.5-.1 2.2-.2.2 0 .4 0 .5-.1.9-.1 1.8-.3 2.7-.5.3-.1.6-.1.9-.2.6-.1 1.3-.3 1.9-.4.4-.1.7-.2 1.1-.3.3-.1.5-.2.8-.2h-.4c-.3-.2-.6-.3-.8-.3z"/>
    <path id="amarillo" fill="#EFD510" d="M42.8 7.7c1.2 0 2.4.1 3.6.2 1.2.1 2.3.3 3.5.5 1.1.1 2.2.3 3.3.6 1.1.3 2.1.6 3.2 1 .7.3 1.3.5 1.9.8 1.2.5 2.3 1 3.2 1.5.5.2.9.5 1.3.7.8.4 1.6.9 2.3 1.4 2.3 1.5 4.4 3.1 6.4 5 1 1 2 2.1 3 3.2s1.9 2.3 2.7 3.5c1.7 2.5 3.3 5.1 4.7 8.1l1.2 2.7c.1.2.2.5.3.7l.9 2.4c0 .1.1.2.1.3.3.9.5 1.7.8 2.5.1.3.1.5.2.8.2.7.3 1.4.5 2.1 0 .2.1.4.1.6.2.8.3 1.6.4 2.4 0 .3.1.6.1.9 0 .2.1.4.1.6l.3-2.1v-.2c.1-.7.2-1.5.2-2.3.1-1.3.1-2.5.1-3.7 0-1.8-.2-3.6-.5-5.3-.2-1.1-.4-2.3-.8-3.3-.2-.5-.3-1.1-.5-1.6-.4-1.2-.8-2.3-1.3-3.4-.4-1.1-.9-2.2-1.4-3.2-.5-1-1-2-1.6-2.9-1.1-1.9-2.3-3.5-3.6-5.1-1.9-2.3-4.1-4.2-6.5-5.7-1.3-.8-2.6-1.6-3.9-2.2-1.3-.7-2.6-1.2-3.8-1.7-1.1-.5-2.3-.8-3.5-1.1-1.2-.3-2.4-.4-3.6-.5-.6 0-1.2-.1-1.8-.1h-1.8c-.5 0-1 0-1.5.1h-.3c-.7.1-1.3.1-1.8.2h-.1c-2.5.3-5 .8-7.6 1.6h1.5z"/>
    <path id="azul" fill="#283996" d="M43.3 52.3c.5.3 1.1.6 1.7.8.3.1.7.2 1.2.3.7.1 1.5.1 2.3-.1s1.5-.5 2.1-.9c1.4-.9 2.2-2 2.6-3.1.3-1 .4-1.9.2-2.6-.2-.8-.5-1.5-.9-2.3-.5-.9-1.2-1.7-2.1-2.2-.6-.4-1.3-.7-2-.9h-.1c-1-.3-1.9-.4-2.9-.4-1.5 0-2.7.4-3.6 1.1-.9.7-1.5 1.7-1.9 3-.2.6-.3 1.2-.2 1.8.1 1.2.6 2.5 1.5 3.7.5.6 1.3 1.3 2.1 1.8zm.5-6.3c.2-.4.6-.8 1.1-1.1.4-.2.7-.3 1.1-.4h.1c.3 0 .6-.1.9 0 .4 0 .8.2 1.2.4.3.2.6.4.8.7s.3.6.4 1c.1.5 0 1-.4 1.6-.1.3-.4.5-.6.7-.3.2-.5.4-.8.5-.2.1-.3.1-.5.1s-.5.1-.7 0c-.4 0-.8-.1-1.2-.3-.6-.3-1-.6-1.2-1.1-.1-.2-.2-.4-.2-.7-.3-.5-.2-.9 0-1.4z"/>
  </g>
</svg>